# xmcd
#
# Track frame offsets: 
#        150
#        9230
#        45912
#        82237
#        134742
#        162415
#        189045
#        204637
#        250417
#
# Disc length: 3740 seconds
#
# Revision: 1
# Processed by: cddbd v1.5.2PL0 Copyright (c) Steve Scherf et al.
# Submitted via: ExactAudioCopy v0.99pb5
#
DISCID=730e9a09
DTITLE=Japanese Traditional Music - NOUGAKU
DYEAR=1990
DGENRE=Folklore
TTITLE0=OSHIRABE - SANBASOU
TTITLE1=MOMI NO DAN
TTITLE2=SUZU NO DAN
TTITLE3=JO NO MAI (TAIKO IRI)
TTITLE4=CHUU NO MAI (TAIKO IRI)
TTITLE5=HAYA MAI
TTITLE6=SHIMO NO TAKANE
TTITLE7=KAGURA
TTITLE8=SHISHI [SHAKKYOU]
EXTD=
EXTT0=
EXTT1=
EXTT2=
EXTT3=
EXTT4=
EXTT5=
EXTT6=
EXTT7=
EXTT8=
PLAYORDER=
